<svg xmlns="http://www.w3.org/2000/svg" viewBox="0 0 32 32" width="32" height="32" fill="none">
  <defs>
    <linearGradient id="logo-gradient" x1="0%" y1="100%" x2="100%" y2="0%">
      <stop offset="0%" stop-color="#14b8a6" />
      <stop offset="100%" stop-color="#06b6d4" />
    </linearGradient>
  </defs>
  <rect width="32" height="32" rx="8" fill="url(#logo-gradient)" />
  <g transform="translate(4, 4)" stroke="#ffffff" stroke-width="2" stroke-linecap="round" stroke-linejoin="round" fill="none">
    <path d="M22 17a2 2 0 0 1-2 2H6.828a2 2 0 0 0-1.414.586l-2.202 2.202A.71.71 0 0 1 2 21.286V5a2 2 0 0 1 2-2h16a2 2 0 0 1 2 2z" />
    <path d="M7.5 9.5c0 .687.265 1.383.697 1.844l3.009 3.264a1.14 1.14 0 0 0 .407.314 1 1 0 0 0 .783-.004 1.14 1.14 0 0 0 .398-.31l3.008-3.264A2.77 2.77 0 0 0 16.5 9.5 2.5 2.5 0 0 0 12 8a2.5 2.5 0 0 0-4.5 1.5" />
  </g>
</svg>